<svg id="svg" version="1.1" xmlns="http://www.w3.org/2000/svg" xmlns:xlink="http://www.w3.org/1999/xlink" width="400" height="400" viewBox="0, 0, 400,400"><g id="svgg"><path id="path0" d="M0.000 200.000 L 0.000 400.000 200.000 400.000 L 400.000 400.000 400.000 200.000 L 400.000 0.000 200.000 0.000 L 0.000 0.000 0.000 200.000 M227.357 138.484 C 229.661 139.675,229.403 140.936,222.643 161.519 C 220.314 168.611,214.519 186.895,209.766 202.148 C 194.793 250.200,191.197 260.524,189.054 261.608 C 187.465 262.412,174.269 262.296,173.086 261.468 C 171.527 260.376,173.117 254.148,181.249 229.492 C 183.163 223.691,185.424 216.748,186.274 214.063 C 187.125 211.377,190.728 200.215,194.281 189.258 C 197.834 178.301,202.759 163.008,205.224 155.273 C 210.091 140.005,210.388 139.138,211.008 138.392 C 211.659 137.607,225.815 137.686,227.357 138.484 M162.040 156.263 C 166.379 158.908,170.800 164.646,170.129 166.761 C 169.770 167.891,162.552 174.687,149.392 186.285 C 134.923 199.038,134.375 199.542,134.375 200.124 C 134.375 200.384,137.666 203.494,141.689 207.036 C 174.951 236.328,172.629 233.257,166.185 239.418 C 158.967 246.318,161.708 247.511,139.229 227.681 C 112.994 204.538,112.891 204.430,112.891 200.143 C 112.891 195.842,113.009 195.717,137.639 173.828 C 159.892 154.052,159.214 154.540,162.040 156.263 M242.609 157.401 C 244.788 158.853,274.764 184.888,281.113 190.844 C 292.074 201.125,292.685 200.109,256.490 231.836 C 238.970 247.193,240.416 246.654,233.858 240.277 C 227.306 233.904,226.247 235.604,249.609 214.975 C 255.947 209.379,262.275 203.739,263.672 202.441 L 266.211 200.082 265.430 199.093 C 265.000 198.549,260.254 194.265,254.883 189.572 C 225.958 164.300,227.992 166.632,231.543 162.816 C 237.475 156.441,239.605 155.399,242.609 157.401 " stroke="none" fill="#20242b" fill-rule="evenodd"></path><path id="path1" d="M211.636 138.202 C 210.805 138.365,210.813 138.341,205.308 155.664 C 202.577 164.258,197.382 180.430,193.765 191.602 C 169.825 265.541,171.323 260.268,173.866 261.638 C 175.532 262.536,188.365 262.117,189.457 261.130 C 191.236 259.520,194.951 248.732,206.878 210.547 C 217.023 178.065,218.618 173.030,222.471 161.328 C 228.845 141.965,229.303 139.980,227.637 138.903 C 226.836 138.385,213.646 137.807,211.636 138.202 M156.869 157.222 C 148.500 163.610,114.950 194.386,113.901 196.637 C 111.070 202.710,110.800 202.400,145.458 233.018 C 159.290 245.238,159.034 245.092,162.344 242.605 C 171.759 235.530,171.881 234.055,163.655 226.741 C 161.006 224.387,157.158 220.957,155.103 219.120 C 153.049 217.282,148.379 213.167,144.727 209.976 C 137.496 203.657,133.984 200.378,133.984 199.943 C 133.984 199.790,139.214 195.044,145.605 189.395 C 173.555 164.696,172.259 166.407,167.090 161.038 C 161.668 155.408,160.041 154.800,156.869 157.222 M234.632 160.059 C 230.165 164.360,230.106 164.434,230.091 165.691 C 230.066 167.761,228.585 166.328,251.396 186.310 C 263.622 197.019,266.016 199.256,266.016 199.971 C 266.016 200.633,259.633 206.527,244.141 220.172 C 227.430 234.890,227.971 233.894,233.595 239.629 C 239.020 245.161,240.205 245.461,244.097 242.286 C 246.518 240.311,266.778 222.583,273.828 216.271 C 292.647 199.423,292.954 201.119,266.992 178.539 C 259.473 171.999,251.531 165.079,249.343 163.161 C 240.083 155.044,239.883 155.001,234.632 160.059 " stroke="none" fill="#f3f3f3" fill-rule="evenodd"></path><path id="path2" d="" stroke="none" fill="#6f7377" fill-rule="evenodd"></path><path id="path3" d="M215.527 138.180 C 216.870 138.256,219.067 138.256,220.410 138.180 C 221.753 138.104,220.654 138.041,217.969 138.041 C 215.283 138.041,214.185 138.104,215.527 138.180 M223.535 138.160 C 223.911 138.258,224.526 138.258,224.902 138.160 C 225.278 138.062,224.971 137.981,224.219 137.981 C 223.467 137.981,223.159 138.062,223.535 138.160 M232.202 162.207 L 231.055 163.477 232.324 162.329 C 233.022 161.698,233.594 161.127,233.594 161.060 C 233.594 160.758,233.271 161.024,232.202 162.207 M232.813 239.258 C 233.541 240.010,234.226 240.625,234.333 240.625 C 234.440 240.625,233.932 240.010,233.203 239.258 C 232.474 238.506,231.790 237.891,231.683 237.891 C 231.575 237.891,232.084 238.506,232.813 239.258 " stroke="none" fill="#8c9494" fill-rule="evenodd"></path><path id="path4" d="" stroke="none" fill="#888c94" fill-rule="evenodd"></path></g></svg>